<svg viewBox="0 0 32 32" fill="none" xmlns="http://www.w3.org/2000/svg">
  <!-- VVM Logo: 3D ring of dots (favicon size) -->
  <!-- Top row -->
  <ellipse cx="8" cy="10" rx="1.3" ry="2.5" fill="#3B8BF6" transform="rotate(-30 8 10)"/>
  <ellipse cx="12" cy="7.5" rx="2" ry="2.5" fill="#3B8BF6" transform="rotate(-15 12 7.5)"/>
  <circle cx="16" cy="7" r="2.5" fill="#3B8BF6"/>
  <ellipse cx="20" cy="7.5" rx="2" ry="2.5" fill="#3B8BF6" transform="rotate(15 20 7.5)"/>
  <ellipse cx="24" cy="10" rx="1.3" ry="2.5" fill="#3B8BF6" transform="rotate(30 24 10)"/>

  <!-- Side dots -->
  <ellipse cx="6" cy="16" rx="1" ry="2.2" fill="#3B8BF6"/>
  <ellipse cx="26" cy="16" rx="1" ry="2.2" fill="#3B8BF6"/>

  <!-- Bottom row -->
  <ellipse cx="8" cy="22" rx="1.3" ry="2.5" fill="#3B8BF6" transform="rotate(30 8 22)"/>
  <ellipse cx="12" cy="24.5" rx="2" ry="2.5" fill="#3B8BF6" transform="rotate(15 12 24.5)"/>
  <circle cx="16" cy="25" r="2.5" fill="#3B8BF6"/>
  <ellipse cx="20" cy="24.5" rx="2" ry="2.5" fill="#3B8BF6" transform="rotate(-15 20 24.5)"/>
  <ellipse cx="24" cy="22" rx="1.3" ry="2.5" fill="#3B8BF6" transform="rotate(-30 24 22)"/>
</svg>
