<?xml version="1.0" encoding="UTF-8"?>
<svg version="1.1" xmlns="http://www.w3.org/2000/svg" width="1024" height="1024">
<path d="M0,0 L25,0 L41,5 L53,12 L65,23 L72,33 L77,46 L78,51 L78,71 L74,84 L68,94 L59,104 L48,112 L40,116 L25,120 L12,121 L-5,119 L-16,115 L-27,109 L-39,98 L-48,84 L-52,72 L-53,66 L-53,54 L-50,40 L-44,28 L-33,16 L-20,7 L-8,2 Z " fill="#0d29ff" transform="translate(500,274)"/>
<path d="M0,0 L8,0 L22,3 L33,9 L43,18 L52,32 L57,49 L57,69 L53,84 L47,95 L39,105 L28,113 L16,118 L6,120 L-2,120 L-18,116 L-29,109 L-38,100 L-45,89 L-50,74 L-51,67 L-51,55 L-48,40 L-43,28 L-35,18 L-28,11 L-16,4 L-7,1 Z " fill="#0d29ff" transform="translate(356,292)"/>
<path d="M0,0 L7,0 L22,4 L33,10 L41,17 L50,30 L55,41 L58,55 L58,70 L54,86 L47,99 L39,108 L28,115 L19,118 L14,119 L0,119 L-11,116 L-23,110 L-34,100 L-43,86 L-47,75 L-49,66 L-49,50 L-46,36 L-39,22 L-28,10 L-18,4 L-8,1 Z " fill="#0d29ff" transform="translate(661,293)"/>
<path d="M0,0 L10,0 L17,4 L23,11 L29,24 L32,36 L33,43 L33,72 L29,93 L24,105 L18,114 L11,120 L9,121 L-3,121 L-9,117 L-16,109 L-21,98 L-24,89 L-26,76 L-26,54 L-23,35 L-18,20 L-12,9 L-4,2 Z " fill="#0d29ff" transform="translate(248,336)"/>
<path d="M0,0 L7,0 L15,4 L22,12 L29,27 L33,44 L34,50 L34,79 L31,95 L26,108 L19,117 L12,121 L1,121 L-8,115 L-14,106 L-20,93 L-24,75 L-25,64 L-25,51 L-23,35 L-18,19 L-13,10 L-8,4 Z " fill="#0d29ff" transform="translate(767,336)"/>
<path d="M0,0 L5,1 L10,9 L14,26 L16,39 L17,52 L17,87 L14,113 L10,130 L6,138 L4,140 L-1,139 L-6,127 L-9,113 L-11,95 L-11,46 L-8,22 L-5,9 L-1,1 Z " fill="#0d29ff" transform="translate(190,411)"/>
<path d="M0,0 L5,1 L8,6 L12,18 L15,35 L16,46 L16,93 L13,115 L9,131 L5,139 L0,140 L-4,135 L-9,116 L-12,89 L-12,52 L-10,30 L-6,12 L-2,2 Z " fill="#0d29ff" transform="translate(829,411)"/>
<path d="M0,0 L9,0 L17,5 L24,13 L30,25 L34,38 L36,48 L37,59 L37,75 L35,91 L30,106 L24,114 L18,119 L16,120 L6,120 L-3,115 L-11,104 L-17,91 L-21,73 L-22,65 L-22,43 L-19,26 L-15,15 L-8,5 L-3,1 Z " fill="#0d29ff" transform="translate(245,507)"/>
<path d="M0,0 L7,0 L15,4 L21,11 L26,21 L30,37 L31,45 L31,61 L28,83 L22,101 L16,111 L7,119 L4,120 L-6,120 L-13,116 L-19,109 L-24,98 L-27,84 L-28,74 L-28,59 L-25,38 L-19,20 L-13,10 L-6,3 Z " fill="#0d29ff" transform="translate(770,507)"/>
<path d="M0,0 L14,0 L27,4 L38,11 L47,21 L54,35 L57,46 L57,63 L54,79 L47,93 L38,103 L30,110 L18,116 L5,119 L-7,119 L-20,115 L-31,108 L-40,98 L-47,84 L-50,72 L-50,51 L-46,36 L-39,24 L-30,14 L-21,7 L-10,2 Z " fill="#0d29ff" transform="translate(662,555)"/>
<path d="M0,0 L14,0 L27,3 L40,10 L51,20 L58,30 L63,40 L67,56 L67,72 L63,88 L57,98 L48,108 L34,116 L25,118 L10,118 L-4,114 L-14,108 L-24,99 L-31,90 L-38,75 L-41,61 L-41,45 L-38,33 L-31,20 L-20,9 L-9,3 Z " fill="#0d29ff" transform="translate(347,556)"/>
<path d="M0,0 L10,0 L24,3 L40,10 L50,18 L59,28 L67,44 L69,53 L69,71 L66,83 L61,93 L53,103 L45,110 L35,116 L22,121 L12,123 L-3,123 L-17,120 L-29,115 L-39,108 L-49,98 L-56,87 L-60,77 L-62,64 L-62,56 L-58,40 L-53,30 L-42,18 L-35,12 L-19,4 L-9,1 Z " fill="#0d29ff" transform="translate(509,576)"/>
</svg>
