<?xml version="1.0" encoding="UTF-8"?>
<svg version="1.1" xmlns="http://www.w3.org/2000/svg" width="1024" height="1024">
<path d="M0 0 C337.92 0 675.84 0 1024 0 C1024 337.92 1024 675.84 1024 1024 C686.08 1024 348.16 1024 0 1024 C0 686.08 0 348.16 0 0 Z " fill="#F9F9F9" transform="translate(0,0)"/>
<path d="M0 0 C13.08870321 9.63425767 22.31469018 23.11966496 26 39 C26.31779391 42.19244861 26.38115062 45.35556488 26.375 48.5625 C26.37338867 49.4400293 26.37177734 50.31755859 26.37011719 51.22167969 C26.22484856 59.01776262 24.82298821 65.69170648 22 73 C21.58427734 74.11181641 21.58427734 74.11181641 21.16015625 75.24609375 C14.58913872 90.29584357 0.74794089 100.70554748 -14.09765625 106.55859375 C-30.64718493 112.76316687 -48.55055851 113.38569931 -65.00390625 106.3359375 C-73.55383492 102.44097 -80.46049121 97.83408126 -87 91 C-87.70511719 90.31421875 -88.41023438 89.6284375 -89.13671875 88.921875 C-99.54333886 78.21792289 -104.96916383 63.80490338 -105.375 49 C-104.90463483 31.16532072 -97.33098342 18.20678647 -85 6 C-84.01193359 4.9790625 -84.01193359 4.9790625 -83.00390625 3.9375 C-60.26535762 -17.96974685 -25.14944318 -15.84288682 0 0 Z " fill="#0d29ff" transform="translate(552,588)"/>
<path d="M0 0 C13.12003985 10.19052537 21.18432423 21.1076602 26.44921875 36.90234375 C27.97321666 55.3101364 25.84797084 71.23648054 14.00390625 85.9375 C8.26623333 92.66306139 2.25998864 97.63756755 -5.55078125 101.90234375 C-6.22625 102.299375 -6.90171875 102.69640625 -7.59765625 103.10546875 C-17.4235084 108.54622986 -28.33594298 109.46204903 -39.36328125 109.40234375 C-40.59361084 109.39662354 -41.82394043 109.39090332 -43.09155273 109.38500977 C-60.73202219 109.03870668 -74.25443895 102.5017173 -87.12890625 90.48828125 C-99.85778627 76.89712226 -105.11667211 62.17641908 -104.796875 43.609375 C-103.74880835 27.82183138 -96.08647193 15.35531448 -84.55078125 4.90234375 C-60.66464825 -14.92834405 -25.93880821 -18.1531935 0 0 Z " fill="#0d29ff" transform="translate(551.55078125,285.09765625)"/>
<path d="M0 0 C0.95197266 -0.020625 1.90394531 -0.04125 2.88476562 -0.0625 C16.77555199 -0.13814758 27.88036919 5.11298969 37.9453125 14.53515625 C52.23634856 30.10297766 55.1378088 47.27613296 54.56494141 67.72363281 C53.88698497 81.16327504 45.85469785 94.91024621 36.4375 104.25 C21.64967342 116.36675177 8.0883997 119.43507986 -10.5625 118.25 C-23.72565605 116.44682794 -34.60309821 106.91552086 -42.5 96.7578125 C-52.09961303 82.81354702 -56.17119432 64.67002644 -53.14794922 47.95849609 C-51.99878712 43.23510972 -50.36890701 38.75851168 -48.5625 34.25 C-48.18996094 33.30511719 -47.81742187 32.36023438 -47.43359375 31.38671875 C-44.39940559 24.58886861 -39.78017222 19.48532931 -34.5625 14.25 C-33.93472656 13.59902344 -33.30695313 12.94804687 -32.66015625 12.27734375 C-23.52615056 3.49093236 -12.31920755 0.06488062 0 0 Z " fill="#0d29ff" transform="translate(358.5625,292.75)"/>
<path d="M0 0 C10.7999473 10.06053182 17.03180292 23.72799169 17.90625 38.34375 C18.47373101 55.61260085 14.56992071 72.70386484 3.25 86.1875 C2.08468694 87.37632835 0.89661589 88.54325084 -0.3125 89.6875 C-0.95445312 90.34878906 -1.59640625 91.01007813 -2.2578125 91.69140625 C-13.24934892 102.37874886 -26.80713573 107.12791147 -41.87353516 107.05102539 C-54.82161167 106.73456686 -66.13764065 100.33727008 -75.0625 91.125 C-85.02399582 79.39614202 -89.90509695 65.18340811 -89.75 49.9375 C-89.74170166 48.88272461 -89.73340332 47.82794922 -89.72485352 46.74121094 C-89.33466597 28.66205834 -82.30958326 14.29139418 -69.3125 1.6875 C-64.08484662 -2.95237634 -58.70579423 -6.5056879 -52.3125 -9.3125 C-51.508125 -9.704375 -50.70375 -10.09625 -49.875 -10.5 C-31.99772008 -16.16840583 -14.17990421 -11.57431253 0 0 Z " fill="#0d29ff" transform="translate(701.3125,567.3125)"/>
<path d="M0 0 C0.63035156 0.43828125 1.26070312 0.8765625 1.91015625 1.328125 C12.96012579 9.68482178 21.29159277 25.73690175 23.52734375 39.16796875 C25.832683 57.85836382 22.07500503 75.04120044 11.15625 90.6328125 C2.71853141 100.8341526 -8.85377632 106.75120759 -21.99169922 108.22314453 C-37.95362942 109.44450595 -50.86715048 104.12834112 -63.0625 94 C-74.65900573 83.2265901 -82.54196844 67.6322132 -83.2578125 51.796875 C-83.67397383 33.76186421 -79.98366445 18.03811779 -67.625 4.375 C-49.42353889 -14.68466471 -20.60344284 -15.7044792 0 0 Z " fill="#0d29ff" transform="translate(695,304)"/>
<path d="M0 0 C14.38527247 11.13278838 23.83067713 25.95598846 27 44 C28.95806485 62.24533213 24.93654524 78.58545212 13.41796875 92.9765625 C5.09751849 102.16752216 -6.80137817 107.51659956 -19.046875 108.3125 C-34.28444585 108.92898972 -47.06099266 104.37139026 -58.91796875 94.59375 C-71.76112848 82.54775191 -80.4433906 65.49679741 -81.22265625 47.7890625 C-81.70980871 30.13728064 -77.65576036 16.80986609 -65.25 3.625 C-46.95985146 -13.6787769 -20.47053216 -14.46221963 0 0 Z " fill="#0d29ff" transform="translate(387,566)"/>
<path d="M0 0 C9.29447864 5.29268923 13.7470024 15.22846414 16.53271484 25.1484375 C23.38776061 50.72376032 22.33600414 82.34308547 9.40625 106.01171875 C5.82159701 111.77957794 1.41092845 117.23802385 -5.1875 119.4375 C-10.29225355 119.92633825 -14.73200965 120.10926478 -19.4375 117.9375 C-31.85176592 106.65180371 -38.31227765 90.3843191 -39.36450195 73.61694336 C-39.86519817 48.37267789 -38.76622755 21.56610524 -20.36328125 2.1875 C-14.3882475 -2.61827221 -6.91515964 -3.08665172 0 0 Z " fill="#0d29ff" transform="translate(261.1875,337.5625)"/>
<path d="M0 0 C10.79779343 6.08564483 15.77299353 18.04323569 19.08349609 29.42236328 C22.1620314 40.46223898 23.11938637 50.70762854 23.125 62.1875 C23.13724609 63.48623047 23.14949219 64.78496094 23.16210938 66.12304688 C23.18748122 82.96149518 20.59641668 101.69935525 8.859375 114.671875 C4.52557606 118.79426911 0.98506835 119.7101279 -4.875 120.125 C-10.61146124 119.95439892 -13.87062826 118.49077071 -18.10546875 114.66796875 C-21.4801184 110.9295844 -23.83776813 107.00508204 -26.0625 102.5 C-26.5884375 101.44683594 -27.114375 100.39367187 -27.65625 99.30859375 C-31.75860851 90.47042431 -33.61207826 82.09991368 -35.0625 72.5 C-35.24554687 71.56414062 -35.42859375 70.62828125 -35.6171875 69.6640625 C-38.59142915 48.53129289 -35.79200287 24.35142183 -22.8112793 6.80908203 C-16.6889631 -0.77949832 -9.39872408 -4.06431312 0 0 Z " fill="#0d29ff" transform="translate(778.0625,337.5)"/>
<path d="M0 0 C3.00203888 0.15395071 4.49068528 0.43755067 6.53515625 2.6953125 C15.44718709 16.71690768 16.10760902 38.55745193 16.2734375 54.70703125 C16.28582962 55.81831894 16.29822174 56.92960663 16.31098938 58.0745697 C16.3432385 61.6539104 16.3621602 65.23303851 16.375 68.8125 C16.37956207 70.02675659 16.38412415 71.24101318 16.38882446 72.49206543 C16.41307897 90.4677817 15.80342336 107.57247089 11 125 C10.74903564 125.92345215 10.49807129 126.8469043 10.23950195 127.79833984 C8.84236972 132.70976638 7.65285244 136.22118713 4 140 C1.6875 139.8125 1.6875 139.8125 -1 139 C-6.62901984 132.07197558 -7.7656199 121.77603196 -9.125 113.25 C-9.29386719 112.25484375 -9.46273437 111.2596875 -9.63671875 110.234375 C-11.80240148 97.00154193 -12.18652544 83.8685377 -12.18530273 70.4909668 C-12.18748211 67.83430774 -12.20568817 65.1780701 -12.22460938 62.52148438 C-12.29064808 42.42475308 -11.38246073 20.17658234 -2 2 C-1.34 1.34 -0.68 0.68 0 0 Z " fill="#0d29ff" transform="translate(829,411)"/>
<path d="M0 0 C2.1875 0 2.1875 0 5 1 C10.66761792 7.63526 11.89482687 15.70435166 13.59765625 24.03955078 C13.93116071 25.66457554 14.2903926 27.28429584 14.65625 28.90234375 C17.3824215 41.2703424 17.21460413 53.95006986 17.24023438 66.55053711 C17.24987495 69.40053236 17.28095849 72.24978431 17.3125 75.09960938 C17.42620867 94.9074879 16.65450154 120.59764748 6 138 C5.01 138.99 5.01 138.99 4 140 C1.5390625 139.94921875 1.5390625 139.94921875 -1 139 C-12.6579948 121.38964277 -11.35615881 93.37740045 -11.31567383 73.17089844 C-11.31252412 69.90004768 -11.33603637 66.63011425 -11.36132812 63.359375 C-11.51242618 13.52040749 -11.51242618 13.52040749 0 0 Z " fill="#0d29ff" transform="translate(190,411)"/>
<path d="M0 0 C4.62 0 9.24 0 14 0 C14 7.26 14 14.52 14 22 C6.625 22.4375 6.625 22.4375 4.30712891 22.56811523 C0.52818684 22.76209704 0.52818684 22.76209704 -3 24 C-2.86722656 23.44054687 -2.73445312 22.88109375 -2.59765625 22.3046875 C-0.96390111 14.88720064 -0.44582017 7.57894292 0 0 Z " fill="#F1F3F5" transform="translate(578,633)"/>
<path d="M0 0 C0 3 0 3 -2.625 5.91796875 C-3.74249406 7.01550756 -4.86785643 8.10507895 -6 9.1875 C-6.57234375 9.74630859 -7.1446875 10.30511719 -7.734375 10.88085938 C-9.14962788 12.26073093 -10.57397155 13.63126734 -12 15 C-12.66 14.67 -13.32 14.34 -14 14 C-12.60919892 12.41224451 -11.21211596 10.82999061 -9.8125 9.25 C-8.64654297 7.92742188 -8.64654297 7.92742188 -7.45703125 6.578125 C-5.11544754 4.12113732 -2.69841735 2.05137234 0 0 Z " fill="#0d29ff" transform="translate(637,565)"/>
<path d="M0 0 C0.66 0.33 1.32 0.66 2 1 C-2.95 5.95 -7.9 10.9 -13 16 C-13 11.08924079 -9.30469813 8.39044878 -6 5 C-4.05397986 3.23549584 -2.07285289 1.6178364 0 0 Z " fill="#0d29ff" transform="translate(471,287)"/>
<path d="M0 0 C0.82638376 2.89234315 1 4.88742431 1 8 C-0.65 8.66 -2.3 9.32 -4 10 C-2.8905928 6.51329166 -1.73662334 3.22515763 0 0 Z " fill="#c5d4ff" transform="translate(792,605)"/>
<path d="M0 0 C0.66 0 1.32 0 2 0 C2.125 5.75 2.125 5.75 1 8 C0.34 8 -0.32 8 -1 8 C-1.04241723 5.66705225 -1.04092937 3.33297433 -1 1 C-0.67 0.67 -0.34 0.34 0 0 Z " fill="#F0F1F4" transform="translate(615,320)"/>
<path d="M0 0 C0.66 0.33 1.32 0.66 2 1 C1.39816251 3.02045442 0.72693904 5.02111039 0 7 C-0.99 7.495 -0.99 7.495 -2 8 C-2.20086443 4.28400809 -2.1519437 3.22791555 0 0 Z " fill="#0d29ff" transform="translate(274,608)"/>
</svg>
